{"title":"Your.Highness.2011.Cam.x264.Feel-Free","uid":6407681,"size":1142331192,"categoryP":"video","categoryS":"movies","magnet":"?xt=urn:btih:658eeabaea60edf7950b7952cb1cb1187ec1f0ad&amp;dn=Your.Highness.2011.Cam.x264.Feel-Free&amp;tr=udp%3A%2F%2Ftracker.openbittorrent.com%3A80&amp;tr=udp%3A%2F%2Fopen.demonii.com%3A1337&amp;tr=udp%3A%2F%2Ftracker.coppersurfer.tk%3A6969&amp;tr=udp%3A%2F%2Fexodus.desync.com%3A6969","seeders":0,"leechers":1,"uploader":"qwersd","files":-1,"time":1305867685,"description":"Genre:Adventure | Comedy | Fantasy \nLanguage:English\nIMDb:http://www.imdb.com/title/tt1240982/\nSource:Kinopark/IMAGINE Thanks!\n\nFormat : MPEG-4\nFormat profile : Base Media\nCodec ID : isom\nFile size : 1.06 GiB\nDuration : 1h 39mn\nOverall bit rate : 1 534 Kbps\n\nVideo\nID : 1\nFormat : AVC\nFormat/Info : Advanced Video Codec\nFormat profile : &lt;a class=&quot;__cf_email__&quot; href=&quot;/cdn-cgi/l/email-protection&quot; data-cfemail=&quot;7038191718303c445e41&quot;&gt;[email&amp;#160;protected]&lt;/a&gt;&lt;script cf-hash='f9e31' type=&quot;text/javascript&quot;&gt;\n/* &lt;![CDATA[ */!function(){try{var t=&quot;currentScript&quot;in document?document.currentScript:function(){for(var t=document.getElementsByTagName(&quot;script&quot;),e=t.length;e--;)if(t[e].getAttribute(&quot;cf-hash&quot;))return t[e]}();if(t&amp;&amp;t.previousSibling){var e,r,n,i,c=t.previousSibling,a=c.getAttribute(&quot;data-cfemail&quot;);if(a){for(e=&quot;&quot;,r=parseInt(a.substr(0,2),16),n=2;a.length-n;n+=2)i=parseInt(a.substr(n,2),16)^r,e+=String.fromCharCode(i);e=document.createTextNode(e),c.parentNode.replaceChild(e,c)}}}catch(u){}}();/* ]]&gt; */&lt;/script&gt;\nFormat settings, CABAC : Yes\nFormat settings, ReFrames : 3 frames\nCodec ID : avc1\nCodec ID/Info : Advanced Video Coding\nDuration : 1h 39mn\nBit rate mode : Variable\nBit rate : 1 304 Kbps\nMaximum bit rate : 5 938 Kbps\nWidth : 720 pixels\nHeight : 320 pixels\nDisplay aspect ratio : 2.25:1\nFrame rate mode : Constant\nFrame rate : 25.000 fps\nColor space : YUV\nChroma subsampling : 4:2:0\nBit depth : 8 bits\nScan type : Progressive\nBits/(Pixel*Frame) : 0.226\nStream size : 929 MiB (85%)\nWriting library : x264\n\nAudio\nID : 2\nFormat : AAC\nFormat/Info : Advanced Audio Codec\nFormat version : Version 4\nFormat profile : LC\nFormat settings, SBR : No\nCodec ID : 40\nDuration : 1h 39mn\nBit rate mode : Variable\nBit rate : 220 Kbps\nMaximum bit rate : 262 Kbps\nChannel(s) : 2 channels\nChannel positions : Front: L R\nSampling rate : 44.1 KHz\nStream size : 156 MiB (14%)\n\n\nPlot:\nWhen Prince Fabious's bride is kidnapped, he goes on a quest to rescue her... accompanied by his lazy useless brother Thadeous. \n\nScreens:\n &lt;a href=&quot;\nhttp://www.pix2links.com/images/96162215759705078421.png&quot; rel=&quot;nofollow&quot; target=&quot;_NEW&quot;&gt;\nhttp://www.pix2links.com/images/96162215759705078421.png&lt;/a&gt; &lt;a href=&quot;\nhttp://www.pix2links.com/images/40776791787166708315.png&quot; rel=&quot;nofollow&quot; target=&quot;_NEW&quot;&gt;\nhttp://www.pix2links.com/images/40776791787166708315.png&lt;/a&gt; &lt;a href=&quot;\nhttp://www.pix2links.com/images/06161507105219263102.png&quot; rel=&quot;nofollow&quot; target=&quot;_NEW&quot;&gt;\nhttp://www.pix2links.com/images/06161507105219263102.png&lt;/a&gt; &lt;a href=&quot;\nhttp://www.pix2links.com/images/03894870058064731910.png&quot; rel=&quot;nofollow&quot; target=&quot;_NEW&quot;&gt;\nhttp://www.pix2links.com/images/03894870058064731910.png&lt;/a&gt; &lt;a href=&quot;\nhttp://www.pix2links.com/images/37280530671058456191.png&quot; rel=&quot;nofollow&quot; target=&quot;_NEW&quot;&gt;\nhttp://www.pix2links.com/images/37280530671058456191.png&lt;/a&gt;\n\nGreets:\n\nINK,CRYS,IMAGINE,LKRG,FXG,3Li,FLAWL3SS,TA,iLLUSiON,ViSiON,DTRG SAFCuk009,LU,TheFalcon007,MYSTiC,PrisM,Noir,WBZ,LAP,Rx,Kingdom,SAFCuk009+Fabreezy,HDLiTE,TWiZTED,ExtraTorrentRG.ELEKTRI4KA,MAGNAT,CM8\nAnd to all the other p2p grps past and present.","torrent":{"xt":"urn:btih:658eeabaea60edf7950b7952cb1cb1187ec1f0ad","amp;dn":"Your.Highness.2011.Cam.x264.Feel-Free","amp;tr":["udp%3A%2F%2Ftracker.openbittorrent.com%3A80","udp%3A%2F%2Fopen.demonii.com%3A1337","udp%3A%2F%2Ftracker.coppersurfer.tk%3A6969","udp%3A%2F%2Fexodus.desync.com%3A6969"],"infoHash":"658eeabaea60edf7950b7952cb1cb1187ec1f0ad","infoHashBuffer":{"type":"Buffer","data":[101,142,234,186,234,96,237,247,149,11,121,82,203,28,177,24,126,193,240,173]},"announce":[],"urlList":[]}}